<svg width="25" height="15" viewBox="0 0 25 15" fill="none" xmlns="http://www.w3.org/2000/svg">
<path fill-rule="evenodd" clip-rule="evenodd" d="M12.5044 1.97802C12.6006 1.87414 12.6593 1.73515 12.6593 1.58242C12.6593 1.26076 12.3986 1 12.0769 1C11.7553 1 11.4945 1.26076 11.4945 1.58242C11.4945 1.73778 11.5553 1.87893 11.6545 1.98336L10.6158 2.1911C10.5377 2.00373 10.4945 1.79811 10.4945 1.58242C10.4945 0.708472 11.203 0 12.0769 0C12.9509 0 13.6593 0.708472 13.6593 1.58242C13.6593 1.71902 13.642 1.85158 13.6095 1.97802H12.5044Z" fill="#2B2B2B"/>
<path fill-rule="evenodd" clip-rule="evenodd" d="M21.3627 11.8681C21.3627 6.73975 17.2053 2.5824 12.077 2.5824C6.94862 2.5824 2.79126 6.73975 2.79126 11.8681H1.79126C1.79126 6.18747 6.39633 1.5824 12.077 1.5824C17.7576 1.5824 22.3627 6.18747 22.3627 11.8681H21.3627Z" fill="#2B2B2B"/>
<path fill-rule="evenodd" clip-rule="evenodd" d="M12.0768 4.19231C12.0768 3.91617 11.8523 3.69067 11.5767 3.70786C8.13637 3.9225 5.29188 6.33577 4.43176 9.55918C4.35002 9.86549 4.59013 10.1538 4.90716 10.1538C5.14637 10.1538 5.35114 9.98584 5.41499 9.75531C6.18077 6.99027 8.62182 4.92143 11.5768 4.71012C11.8522 4.69043 12.0768 4.46845 12.0768 4.19231Z" fill="#2B2B2B"/>
<path fill-rule="evenodd" clip-rule="evenodd" d="M4.69231 12.3176C4.69231 12.0415 4.46845 11.8176 4.19231 11.8176H1.55385C0.695681 11.8176 0 12.5133 0 13.3714C0 14.2296 0.695679 14.9253 1.55385 14.9253H22.6C23.4582 14.9253 24.1538 14.2296 24.1538 13.3714C24.1538 12.5133 23.4582 11.8176 22.6 11.8176H7.96154C7.6854 11.8176 7.46154 12.0415 7.46154 12.3176C7.46154 12.5937 7.6854 12.8176 7.96154 12.8176H22.6C22.9059 12.8176 23.1538 13.0656 23.1538 13.3714C23.1538 13.6773 22.9059 13.9253 22.6 13.9253H1.55385C1.24796 13.9253 1 13.6773 1 13.3714C1 13.0656 1.24797 12.8176 1.55385 12.8176H4.19231C4.46845 12.8176 4.69231 12.5937 4.69231 12.3176Z" fill="#2B2B2B"/>
</svg>
