<svg width="18" height="18" viewBox="0 0 18 18" fill="none" xmlns="http://www.w3.org/2000/svg">
<path d="M1.64917 17.2759L1.65199 17.6352V17.2759H1.64917Z" fill="white"/>
<path d="M15.7204 1.73505C15.8825 1.66974 15.961 1.48538 15.8956 1.32329C15.8303 1.16119 15.646 1.0827 15.4839 1.14801C13.5363 1.9159 13.0689 3.75215 12.9604 4.48665C12.2463 4.50932 11.5689 4.80862 11.0713 5.32131C10.557 5.83737 10.2748 6.54044 10.2895 7.26885C10.3062 8.38173 10.0614 9.92864 7.99419 12.1767C6.66152 13.6067 4.63329 14.8281 3.42582 15.5542C2.37136 16.1886 2.18217 16.3027 2.26842 16.6143C2.31948 16.7827 2.48286 16.8912 2.65793 16.873C4.26326 16.873 8.31136 16.631 11.1993 14.3829C14.1345 12.0988 15.8177 9.49461 15.8177 7.23546C15.8172 7.10884 15.8079 6.98242 15.7899 6.85709C15.6259 5.69861 14.7499 4.76908 13.6031 4.53673C13.7033 3.89957 14.1178 2.36658 15.7204 1.73505ZM10.8098 13.8849C8.5089 15.6738 5.39562 16.1107 3.54824 16.2164L3.75134 16.094C4.98942 15.3483 7.06494 14.0991 8.48108 12.5717C10.7068 10.1623 10.9628 8.45125 10.9433 7.22708C10.9433 7.19091 10.9433 7.15475 10.9433 7.11858C11.4024 7.21039 11.9199 7.3968 12.0284 7.59155C12.108 7.74589 12.2976 7.80651 12.4519 7.72694C12.4736 7.71574 12.4939 7.70204 12.5125 7.68615C12.8035 7.44389 13.1301 7.24778 13.4807 7.10467C13.7198 7.28721 13.9045 7.53156 14.0149 7.81135C14.0458 7.91936 14.1315 8.00297 14.2402 8.03114C14.2661 8.03451 14.2923 8.03451 14.3181 8.03114C14.4042 8.031 14.4866 7.99584 14.5463 7.93376C14.741 7.73456 14.9554 7.55559 15.1862 7.39958C15.0832 9.41671 13.4696 11.8177 10.8098 13.8849ZM14.5453 5.71235C14.828 5.99019 15.0278 6.3413 15.1222 6.72632C14.8644 6.85691 14.6241 7.01957 14.4071 7.21042C14.2186 6.93255 13.9821 6.69047 13.7088 6.4954C13.6325 6.44271 13.5368 6.4264 13.4473 6.45088C13.0477 6.57261 12.6715 6.76072 12.3344 7.00732C11.9531 6.73822 11.5136 6.56283 11.0518 6.4954C11.1536 6.21161 11.316 5.95339 11.5276 5.73864C12.3536 4.89803 13.7047 4.88628 14.5453 5.71235Z" fill="white"/>
</svg>
