<svg width="24" height="24" viewBox="0 0 24 24" fill="none" xmlns="http://www.w3.org/2000/svg">
<g clip-path="url(#clip0)">
<path d="M19.8346 0.139562C19.7506 0.0505506 19.6335 0 19.5111 0H4.48891C4.36647 0 4.24943 0.0505506 4.16545 0.139562C4.08148 0.228693 4.03798 0.348462 4.04521 0.47072L5.30921 21.804C5.32314 22.0388 5.5177 22.2222 5.75291 22.2222H6.15441L6.55722 23.6744C6.61061 23.8668 6.78579 24 6.98556 24H17.0144C17.2142 24 17.3893 23.8668 17.4427 23.6744L17.8457 22.2222H18.2472C18.4824 22.2222 18.6769 22.0388 18.6909 21.804L19.9548 0.47072C19.962 0.348521 19.9185 0.228693 19.8346 0.139562ZM19.0395 0.888933L18.9262 2.80055H5.07371L4.96046 0.888933H19.0395ZM10.9688 21.3333L10.7233 3.68943H13.2764L13.031 21.3333H10.9688ZM9.83436 3.68949L10.0798 21.3333H8.08399L7.35725 3.68949H9.83436ZM13.92 21.3333L14.1654 3.68943H16.6425L15.9164 21.3333H13.92ZM5.12639 3.68949H6.46761L7.19428 21.3333H6.17183L5.12639 3.68949ZM16.6765 23.1111H7.32348L7.07694 22.2222H16.9231L16.6765 23.1111ZM17.8282 21.3333H16.8061L17.5323 3.68943H18.8736L17.8282 21.3333Z" fill="#333333"/>
</g>
<defs>
<clipPath id="clip0">
<rect width="24" height="24" fill="white"/>
</clipPath>
</defs>
</svg>
