<svg width="24" height="24" viewBox="0 0 24 24" fill="none" xmlns="http://www.w3.org/2000/svg">
<g clip-path="url(#clip0)">
<path d="M23.5626 18.924H20.1906C19.4246 17.5161 18.3074 16.326 16.9449 15.4715C16.0754 14.9263 15.1263 14.5334 14.1355 14.3009V10.2482C14.1355 9.24959 13.397 8.4203 12.4375 8.27747V5.84747C12.9291 5.69181 13.2865 5.23147 13.2865 4.68901V1.40488C13.2865 0.734872 12.7415 0.18985 12.0715 0.18985H11.9287C11.2587 0.18985 10.7137 0.734931 10.7137 1.40488V4.68907C10.7137 5.23153 11.0711 5.69186 11.5628 5.84753V8.27753C10.6032 8.42036 9.8647 9.24959 9.8647 10.2483V14.301C8.87398 14.5335 7.92478 14.9264 7.05537 15.4716C5.69285 16.3261 4.57568 17.5161 3.80962 18.9241H0.437418C0.195846 18.9241 0 19.1199 0 19.3615C0 19.6031 0.195846 19.7989 0.437418 19.7989H1.95269L3.34537 22.3072C3.86012 23.2344 4.83866 23.8103 5.89925 23.8103H18.1008C19.1613 23.8103 20.1399 23.2344 20.6546 22.3072L22.0474 19.7989H23.5626C23.8043 19.7989 24.0001 19.603 24.0001 19.3615C24.0001 19.1199 23.8042 18.924 23.5626 18.924ZM19.1791 18.924H16.5242C17.1094 18.4467 17.6228 17.8896 17.8893 17.3144C18.3774 17.7904 18.8113 18.3294 19.1791 18.924ZM17.1842 16.6991C17.0294 17.3437 16.1442 18.2435 14.9981 18.924H11.8011C11.8018 18.8735 11.8019 18.8233 11.8011 18.7734C12.1957 18.6937 12.8365 18.5371 13.5258 18.2586C14.8278 17.7326 15.7622 16.9835 16.26 16.0742C16.5813 16.2617 16.8902 16.4702 17.1842 16.6991ZM7.66677 18.924C7.5864 18.3675 7.30365 17.6317 6.47775 16.9768C6.72877 16.7596 6.99198 16.5578 7.26592 16.3724C7.77571 16.7462 8.6765 17.5895 8.77501 18.924H7.66677ZM9.65241 18.924C9.56907 17.44 8.71091 16.4394 8.06715 15.8922C8.46986 15.6807 8.89078 15.5027 9.32539 15.3585C9.76987 15.792 10.9504 17.1167 10.9248 18.924H9.65241ZM12.0001 14.9278C12.5167 14.9278 13.025 14.9747 13.5205 15.0643C12.8886 15.4916 11.9249 16.0234 10.9967 16.0673C10.7612 15.6747 10.5084 15.3497 10.2897 15.1009C10.845 14.9873 11.4172 14.9278 12.0001 14.9278ZM11.4151 16.9036C12.8257 16.6901 14.1413 15.7271 14.6222 15.3406C14.9158 15.4358 15.2029 15.5475 15.4827 15.6737C14.6832 17.1169 12.6097 17.7052 11.7104 17.8976C11.6419 17.5421 11.539 17.2099 11.4151 16.9036ZM12.4375 14.0644V12.2718H13.2607V14.1386C12.9883 14.1017 12.7136 14.0773 12.4375 14.0644ZM11.5885 1.40488C11.5885 1.21726 11.7411 1.06469 11.9287 1.06469H12.0714C12.2591 1.06469 12.4116 1.21731 12.4116 1.40488V4.68907C12.4116 4.87669 12.2591 5.02926 12.0714 5.02926H11.9287C11.741 5.02926 11.5885 4.87663 11.5885 4.68907V1.40488ZM10.7395 10.2482C10.7395 9.63189 11.2409 9.13037 11.8573 9.13037H12.1429C12.7593 9.13037 13.2608 9.63183 13.2608 10.2482V11.397H10.7395V10.2482ZM10.7395 12.2718H11.5627V14.0644C11.2865 14.0773 11.0119 14.1017 10.7395 14.1386V12.2718ZM5.83935 17.591C6.21675 17.8728 6.64712 18.3151 6.77916 18.924H4.82116C5.1193 18.4419 5.46055 17.9961 5.83935 17.591ZM19.8898 21.8826C19.5292 22.532 18.8437 22.9355 18.1008 22.9355H5.89919C5.15628 22.9355 4.47076 22.532 4.11021 21.8826L2.95333 19.7989H21.0467L19.8898 21.8826Z" fill="#333333"/>
</g>
<defs>
<clipPath id="clip0">
<rect width="24" height="24" fill="white"/>
</clipPath>
</defs>
</svg>
