<svg width="24" height="24" viewBox="0 0 24 24" fill="none" xmlns="http://www.w3.org/2000/svg">
<g clip-path="url(#clip0)">
<path d="M0.153505 17.572C1.80131 18.8862 3.63904 19.9098 5.61573 20.6142C7.66094 21.3431 9.80893 21.7127 12.0001 21.7127C14.1912 21.7127 16.3392 21.3431 18.3845 20.6144C20.361 19.91 22.1988 18.8868 23.8467 17.573C24.0225 17.4328 24.0515 17.1766 23.9114 17.0006L12.3188 2.44111C12.2415 2.34402 12.1241 2.28747 12.0001 2.28747C11.876 2.28747 11.7586 2.34402 11.6813 2.44111L0.0888 16.9996C-0.0512547 17.1756 -0.0222973 17.4317 0.153505 17.572ZM12.0001 3.34908L21.0217 14.6796C19.8062 15.5967 18.4674 16.3196 17.036 16.8296C15.4231 17.4044 13.7287 17.6958 12.0001 17.6958C10.2715 17.6958 8.57722 17.4044 6.9643 16.8296C5.53267 16.3195 4.19382 15.5965 2.9782 14.6793L5.948 10.9497C6.53234 11.4092 7.24778 11.6586 8.00554 11.6586C9.8475 11.6586 11.3461 10.1598 11.3461 8.31747C11.3461 7.29335 10.8913 6.35256 10.1104 5.72231L12.0001 3.34908ZM10.5311 8.31753C10.5311 9.71048 9.39811 10.8437 8.00548 10.8437C7.43504 10.8437 6.89623 10.6568 6.45552 10.3123L9.60238 6.36028C10.1892 6.83694 10.5311 7.54581 10.5311 8.31753ZM2.47035 15.3171C3.75665 16.2903 5.17432 17.0569 6.69076 17.5973C8.39175 18.2034 10.1781 18.5107 12.0001 18.5107C13.8222 18.5107 15.6085 18.2034 17.3095 17.5973C18.8258 17.0569 20.2434 16.2904 21.5295 15.3174L23.0175 17.1861C21.5238 18.3238 19.8751 19.2181 18.111 19.8467C16.1538 20.5441 14.0977 20.8977 12.0002 20.8977C9.90248 20.8977 7.84652 20.544 5.88938 19.8466C4.1251 19.2179 2.47648 18.3234 0.982864 17.1853L2.47035 15.3171Z" fill="white"/>
<path d="M15.3302 16.3852C16.6781 16.3852 17.7748 15.2886 17.7748 13.9406C17.7748 12.5926 16.6781 11.4959 15.3302 11.4959C13.9822 11.4959 12.8855 12.5926 12.8855 13.9406C12.8855 15.2886 13.9822 16.3852 15.3302 16.3852ZM15.3302 12.3109C16.2288 12.3109 16.9599 13.042 16.9599 13.9407C16.9599 14.8393 16.2288 15.5704 15.3302 15.5704C14.4315 15.5704 13.7005 14.8393 13.7005 13.9407C13.7005 13.042 14.4315 12.3109 15.3302 12.3109Z" fill="white"/>
<path d="M8.41263 13.5326C7.69372 13.5326 7.10878 14.1175 7.10878 14.8364C7.10878 15.5553 7.69372 16.1403 8.41263 16.1403C9.13154 16.1403 9.71643 15.5554 9.71643 14.8364C9.71643 14.1175 9.13154 13.5326 8.41263 13.5326ZM8.41263 15.3253C8.14301 15.3253 7.92369 15.106 7.92369 14.8363C7.92369 14.5668 8.14301 14.3475 8.41263 14.3475C8.6822 14.3475 8.90152 14.5668 8.90152 14.8363C8.90152 15.106 8.6822 15.3253 8.41263 15.3253Z" fill="white"/>
<path d="M5.64186 14.2657C5.41683 14.2657 5.23441 14.4481 5.23441 14.6732C5.23441 14.8982 5.41683 15.0806 5.64186 15.0806C5.86689 15.0806 6.04932 14.8982 6.04932 14.6732C6.04932 14.4481 5.86689 14.2657 5.64186 14.2657Z" fill="white"/>
<path d="M15.0946 9.78432C14.8696 9.78432 14.6872 9.96675 14.6872 10.1918C14.6872 10.4168 14.8696 10.5992 15.0946 10.5992C15.3197 10.5992 15.5021 10.4168 15.5021 10.1918C15.5021 9.96675 15.3197 9.78432 15.0946 9.78432Z" fill="white"/>
<path d="M12.0792 6.36213C11.8542 6.36213 11.6718 6.54455 11.6718 6.76958C11.6718 6.99461 11.8542 7.17703 12.0792 7.17703C12.3043 7.17703 12.4867 6.99461 12.4867 6.76958C12.4867 6.54455 12.3043 6.36213 12.0792 6.36213Z" fill="white"/>
</g>
<defs>
<clipPath id="clip0">
<rect width="24" height="24" fill="white" transform="translate(24 24) rotate(180)"/>
</clipPath>
</defs>
</svg>
