<svg width="24" height="24" viewBox="0 0 24 24" fill="none" xmlns="http://www.w3.org/2000/svg">
<path d="M23.5612 11.1684H22.8606C22.6931 9.96913 21.8503 8.98398 20.7297 8.61012C20.7009 8.41904 20.6367 8.21953 20.497 8.0443C20.2002 7.67254 19.7156 7.59426 19.288 7.52522C19.043 7.48561 18.7651 7.44073 18.6505 7.34923C18.5376 7.25901 18.4328 6.99935 18.3404 6.77024C18.1778 6.36718 17.9936 5.91035 17.5627 5.70253C17.1385 5.49811 16.6705 5.63654 16.2578 5.7587C16.0172 5.82996 15.7445 5.91076 15.5966 5.877C15.4617 5.84635 15.2579 5.66099 15.078 5.49741C14.7538 5.20265 14.3865 4.86851 13.9009 4.86851C13.4155 4.86851 13.0483 5.20253 12.7243 5.49717C12.5444 5.66082 12.3405 5.84629 12.2051 5.877C12.0574 5.91076 11.7846 5.82991 11.544 5.7587C11.1311 5.63648 10.6633 5.49805 10.239 5.70253C9.80813 5.91035 9.62389 6.36718 9.4613 6.7703C9.36892 6.99935 9.26413 7.25907 9.15127 7.34923C9.03665 7.44073 8.7588 7.48567 8.51366 7.52528C8.09264 7.59326 7.61674 7.67078 7.31858 8.02844L5.80856 6.51842C6.26995 5.82552 6.19542 4.87869 5.58471 4.26799L3.16993 1.85327C2.83293 1.51615 2.38482 1.33051 1.90816 1.33051C1.4315 1.33051 0.983394 1.51615 0.646332 1.85321L0.522647 1.9769C0.185586 2.31396 0 2.76207 0 3.23867C0 3.71533 0.185586 4.1635 0.522647 4.5005L2.93737 6.91522C3.28525 7.26305 3.7422 7.43699 4.19914 7.43699C4.54445 7.43699 4.88965 7.33753 5.18786 7.13889L6.77522 8.72626C5.80458 9.16401 5.09354 10.0776 4.94125 11.1684H4.24062C3.99828 11.1684 3.80182 11.3648 3.80182 11.6072C3.80182 13.5486 4.35418 15.4342 5.39924 17.0602C6.36626 18.5648 7.70877 19.7826 9.29362 20.5961V22.2304C9.29362 22.4728 9.49009 22.6692 9.73243 22.6692H18.0693C18.3117 22.6692 18.5081 22.4728 18.5081 22.2304V20.5961C20.093 19.7826 21.4355 18.5648 22.4025 17.0602C23.4476 15.4342 23.9999 13.5486 23.9999 11.6072C24 11.3649 23.8035 11.1684 23.5612 11.1684ZM21.9713 11.1684H17.4936C17.6987 10.1196 18.6244 9.32555 19.7324 9.32555C20.8404 9.32555 21.7661 10.1196 21.9713 11.1684ZM11.1975 11.1684C11.1462 10.8015 11.0318 10.4546 10.8655 10.1391L16.7183 10.6603C16.6666 10.8243 16.6286 10.9942 16.6043 11.1685H11.1975V11.1684ZM19.148 8.3916C19.2626 8.41008 19.3896 8.43068 19.5029 8.45718C18.5206 8.52809 17.6615 9.04957 17.132 9.81602L10.9996 9.26991L18.2797 8.15095C18.5463 8.29436 18.8626 8.34549 19.148 8.3916ZM8.65355 8.3916C9.00535 8.33473 9.40402 8.27037 9.69884 8.03499C9.99179 7.80096 10.1358 7.44383 10.2751 7.09858C10.3731 6.85566 10.4951 6.55341 10.6201 6.49303C10.7391 6.43575 11.0472 6.52685 11.2948 6.60021C11.6385 6.70196 12.028 6.81722 12.3995 6.73279C12.76 6.65094 13.042 6.39444 13.3147 6.14643C13.5107 5.9681 13.7548 5.74612 13.9008 5.74612C14.0469 5.74612 14.2912 5.96828 14.4874 6.14672C14.76 6.39462 15.0419 6.65094 15.4019 6.73285C15.7735 6.81728 16.1631 6.70202 16.5068 6.60027C16.7544 6.5269 17.0625 6.43581 17.1814 6.49303C17.3065 6.55335 17.4284 6.85566 17.5264 7.09858C17.5618 7.18634 17.5976 7.27492 17.636 7.36204L9.20124 8.65845C8.91771 8.54922 8.6147 8.48006 8.29888 8.45724C8.41203 8.43068 8.53899 8.41014 8.65355 8.3916ZM3.55796 6.29469L1.14324 3.87991C0.971926 3.70866 0.877612 3.48095 0.877612 3.23867C0.877612 2.99645 0.971926 2.76874 1.14324 2.59748L1.26686 2.47386C1.43817 2.30255 1.66588 2.20818 1.9081 2.20818C2.15033 2.20818 2.37804 2.30255 2.54935 2.47386L4.96407 4.88852C5.31763 5.24208 5.31763 5.81744 4.96407 6.171L4.84044 6.29463C4.48682 6.64831 3.91152 6.64831 3.55796 6.29469ZM8.06935 9.32555C9.17737 9.32555 10.103 10.1196 10.3082 11.1684H5.8305C6.03569 10.1196 6.96134 9.32555 8.06935 9.32555ZM10.1712 21.7917V20.7629H17.6305V21.7917H10.1712ZM21.6643 16.5857C20.7524 18.0045 19.4746 19.143 17.9658 19.8853H9.83598C8.32719 19.143 7.04939 18.0045 6.13755 16.5857C5.26251 15.2243 4.7659 13.6633 4.68972 12.046H23.112C23.0359 13.6633 22.5392 15.2244 21.6643 16.5857Z" fill="#333333"/>
</svg>
