<svg width="18" height="18" viewBox="0 0 18 18" fill="none" xmlns="http://www.w3.org/2000/svg">
<g clip-path="url(#clip0)">
<path d="M17.634 0.880417C17.5659 0.639404 17.3377 0.479004 17.0877 0.497955C16.9829 0.505783 15.2883 0.640778 13.7479 1.35338C12.3239 0.467194 10.6889 0 8.99959 0C6.59564 0 4.33575 0.936172 2.63589 2.63589C0.936172 4.33575 0 6.59564 0 8.99959C0 11.4034 0.936172 13.6634 2.63589 15.3633C4.33575 17.063 6.59564 17.9992 8.99959 17.9992C11.4034 17.9992 13.6634 17.063 15.3633 15.3633C17.063 13.6634 17.9992 11.4034 17.9992 8.99959C17.9992 8.01123 17.8401 7.04224 17.5266 6.11554C18.5028 4.02429 17.673 1.01857 17.634 0.880417ZM16.3501 6.05553C15.6441 7.06393 14.3186 7.21129 13.4523 7.18602L15.5345 4.21696C15.7017 3.97842 15.644 3.64952 15.4054 3.48239C15.167 3.31512 14.8381 3.37294 14.671 3.61134L12.5903 6.57834C12.271 5.77235 11.9594 4.48022 12.6638 3.47429C12.9651 3.04404 13.4122 2.70786 13.9091 2.44542C13.9382 2.43361 13.9662 2.41891 13.9931 2.40189C14.9685 1.90833 16.1121 1.68956 16.7248 1.60194C16.9636 2.72653 17.1881 4.85884 16.3501 6.05553ZM12.6981 1.96628C12.3534 2.22157 12.0446 2.52013 11.8 2.86949C11.1683 3.77161 11.0183 4.93643 11.3665 6.2379C11.5192 6.80919 11.736 7.28737 11.8869 7.58153L11.8004 7.70499C11.0668 8.75116 10.5237 9.90651 10.1864 11.1389L8.89604 15.852L3.60626 3.16626C5.07857 1.80244 6.98154 1.05469 8.99959 1.05469C10.2997 1.05469 11.563 1.36794 12.6981 1.96628ZM1.05469 8.99959C1.05469 7.16171 1.67487 5.41928 2.8158 4.0107L8.19196 16.904C6.37495 16.7217 4.69034 15.9261 3.38173 14.6174C1.881 13.1169 1.05469 11.1217 1.05469 8.99959ZM14.6174 14.6174C13.2829 15.952 11.5571 16.7528 9.69873 16.9139L11.2036 11.4174C11.5087 10.3024 12.0001 9.25708 12.6638 8.31061L12.7488 8.18948C12.9665 8.21709 13.2722 8.24455 13.6272 8.24455C13.8062 8.24455 13.998 8.23755 14.1971 8.21997C15.2446 8.12782 16.1101 7.77901 16.7399 7.20126C16.8755 7.78766 16.9445 8.3893 16.9445 8.99959C16.9445 11.1217 16.118 13.1169 14.6174 14.6174Z" fill="white"/>
</g>
<defs>
<clipPath id="clip0">
<rect width="18" height="18" fill="white"/>
</clipPath>
</defs>
</svg>
