<?xml version="1.0" encoding="UTF-8" standalone="no"?><!DOCTYPE svg PUBLIC "-//W3C//DTD SVG 1.1//EN" "http://www.w3.org/Graphics/SVG/1.1/DTD/svg11.dtd"><svg width="100%" height="100%" viewBox="0 0 48 48" version="1.1" xmlns="http://www.w3.org/2000/svg" xmlns:xlink="http://www.w3.org/1999/xlink" xml:space="preserve" xmlns:serif="http://www.serif.com/" style="fill-rule:evenodd;clip-rule:evenodd;stroke-linejoin:round;stroke-miterlimit:1.5;"><g id="Slice-1" serif:id="Slice 1"><path d="M42.225,19.113c-1.287,-4.245 -4.737,-8.972 -8.78,-11.466" style="fill:none;stroke:#000;stroke-width:1px;"/><path d="M34.787,5.322c0.136,-0.235 0.361,-0.405 0.624,-0.471c0.264,-0.065 0.543,-0.021 0.773,0.123c4.44,2.847 7.747,7.158 9.344,12.185c0.08,0.258 0.05,0.538 -0.081,0.774c-0.131,0.237 -0.352,0.41 -0.613,0.48c-4.251,1.143 -20.83,5.585 -20.83,5.585c0,0 8.582,-14.863 10.783,-18.676Z" style="fill:none;stroke:#000;stroke-width:1px;stroke-linecap:round;stroke-miterlimit:1;"/><path d="M38.386,17.36c0.319,-0.554 0.129,-1.262 -0.424,-1.582c-0.553,-0.319 -1.262,-0.129 -1.581,0.424c-0.32,0.553 -0.13,1.262 0.424,1.581c0.553,0.32 1.261,0.13 1.581,-0.423Z" style="fill:none;stroke:#000;stroke-width:1px;stroke-linejoin:miter;stroke-miterlimit:1;"/><path d="M28.785,15.718c1.17,0.675 2.669,0.274 3.345,-0.897c0.675,-1.17 0.274,-2.669 -0.896,-3.344" style="fill:none;stroke:#000;stroke-width:1px;stroke-linejoin:miter;stroke-miterlimit:1;"/><path d="M35.268,12.325c0.159,-0.277 0.065,-0.631 -0.212,-0.791c-0.277,-0.16 -0.631,-0.065 -0.791,0.212c-0.159,0.277 -0.065,0.631 0.212,0.791c0.277,0.159 0.631,0.064 0.791,-0.212Z"/><path d="M31.001,19.876c0.159,-0.277 0.064,-0.631 -0.212,-0.791c-0.277,-0.159 -0.631,-0.065 -0.791,0.212c-0.16,0.277 -0.065,0.631 0.212,0.791c0.277,0.159 0.631,0.065 0.791,-0.212Z"/></g><g id="Slice-11" serif:id="Slice 1"><path d="M28.889,42.22c4.245,-1.288 8.972,-4.738 11.467,-8.781" style="fill:none;stroke:#000;stroke-width:1px;"/><path d="M42.681,34.781c0.235,0.136 0.405,0.361 0.47,0.625c0.066,0.263 0.022,0.542 -0.122,0.772c-2.848,4.44 -7.159,7.748 -12.186,9.345c-0.258,0.079 -0.538,0.05 -0.774,-0.081c-0.236,-0.131 -0.409,-0.353 -0.479,-0.614c-1.144,-4.251 -5.586,-20.83 -5.586,-20.83c0,0 14.864,8.582 18.677,10.783Z" style="fill:none;stroke:#000;stroke-width:1px;stroke-linecap:round;stroke-miterlimit:1;"/><path d="M30.643,38.38c0.553,0.319 1.262,0.13 1.581,-0.424c0.32,-0.553 0.13,-1.261 -0.423,-1.581c-0.554,-0.319 -1.262,-0.13 -1.582,0.424c-0.319,0.553 -0.129,1.262 0.424,1.581Z" style="fill:none;stroke:#000;stroke-width:1px;stroke-linejoin:miter;stroke-miterlimit:1;"/><path d="M32.285,28.779c-0.676,1.171 -0.274,2.669 0.896,3.345c1.17,0.676 2.669,0.274 3.345,-0.896" style="fill:none;stroke:#000;stroke-width:1px;stroke-linejoin:miter;stroke-miterlimit:1;"/><path d="M35.678,35.262c0.276,0.16 0.631,0.065 0.79,-0.212c0.16,-0.277 0.065,-0.631 -0.211,-0.791c-0.277,-0.159 -0.631,-0.064 -0.791,0.212c-0.16,0.277 -0.065,0.631 0.212,0.791Z"/><path d="M28.127,30.995c0.276,0.16 0.631,0.065 0.79,-0.212c0.16,-0.277 0.065,-0.631 -0.212,-0.791c-0.276,-0.159 -0.631,-0.064 -0.79,0.212c-0.16,0.277 -0.065,0.631 0.212,0.791Z"/></g><g id="Slice-12" serif:id="Slice 1"><path d="M5.783,28.883c1.288,4.245 4.738,8.973 8.781,11.467" style="fill:none;stroke:#000;stroke-width:1px;"/><path d="M13.221,42.675c-0.135,0.235 -0.361,0.405 -0.624,0.47c-0.263,0.066 -0.542,0.022 -0.772,-0.122c-4.44,-2.848 -7.748,-7.158 -9.345,-12.185c-0.079,-0.259 -0.05,-0.538 0.081,-0.775c0.131,-0.236 0.352,-0.409 0.613,-0.479c4.252,-1.143 20.83,-5.586 20.83,-5.586c0,0 -8.581,14.864 -10.783,18.677Z" style="fill:none;stroke:#000;stroke-width:1px;stroke-linecap:round;stroke-miterlimit:1;"/><path d="M9.622,30.637c-0.319,0.553 -0.129,1.262 0.424,1.581c0.553,0.32 1.262,0.13 1.581,-0.423c0.32,-0.554 0.13,-1.262 -0.423,-1.581c-0.554,-0.32 -1.262,-0.13 -1.582,0.423Z" style="fill:none;stroke:#000;stroke-width:1px;stroke-linejoin:miter;stroke-miterlimit:1;"/><path d="M19.223,32.279c-1.17,-0.676 -2.669,-0.274 -3.344,0.896c-0.676,1.171 -0.275,2.669 0.896,3.345" style="fill:none;stroke:#000;stroke-width:1px;stroke-linejoin:miter;stroke-miterlimit:1;"/><path d="M12.741,35.672c-0.16,0.277 -0.065,0.631 0.211,0.791c0.277,0.159 0.631,0.064 0.791,-0.212c0.16,-0.277 0.065,-0.631 -0.212,-0.791c-0.276,-0.16 -0.631,-0.065 -0.79,0.212Z"/><path d="M17.008,28.121c-0.16,0.276 -0.065,0.631 0.211,0.79c0.277,0.16 0.631,0.065 0.791,-0.211c0.16,-0.277 0.065,-0.631 -0.212,-0.791c-0.276,-0.16 -0.631,-0.065 -0.79,0.212Z"/></g><g id="Slice-13" serif:id="Slice 1"><path d="M19.119,5.777c-4.245,1.288 -8.972,4.738 -11.466,8.781" style="fill:none;stroke:#000;stroke-width:1px;"/><path d="M5.328,13.216c-0.235,-0.136 -0.405,-0.361 -0.471,-0.625c-0.066,-0.263 -0.021,-0.542 0.123,-0.772c2.847,-4.44 7.158,-7.748 12.185,-9.345c0.258,-0.079 0.538,-0.05 0.774,0.081c0.237,0.131 0.41,0.353 0.48,0.614c1.143,4.251 5.585,20.829 5.585,20.829c0,0 -14.864,-8.581 -18.676,-10.782Z" style="fill:none;stroke:#000;stroke-width:1px;stroke-linecap:round;stroke-miterlimit:1;"/><path d="M17.365,9.617c-0.553,-0.32 -1.262,-0.13 -1.581,0.423c-0.319,0.554 -0.13,1.262 0.424,1.582c0.553,0.319 1.262,0.129 1.581,-0.424c0.319,-0.553 0.13,-1.262 -0.424,-1.581Z" style="fill:none;stroke:#000;stroke-width:1px;stroke-linejoin:miter;stroke-miterlimit:1;"/><path d="M15.723,19.218c0.676,-1.171 0.275,-2.67 -0.896,-3.345c-1.17,-0.676 -2.669,-0.274 -3.345,0.896" style="fill:none;stroke:#000;stroke-width:1px;stroke-linejoin:miter;stroke-miterlimit:1;"/><path d="M12.331,12.735c-0.277,-0.16 -0.631,-0.065 -0.791,0.212c-0.16,0.276 -0.065,0.631 0.212,0.79c0.276,0.16 0.631,0.065 0.79,-0.212c0.16,-0.276 0.065,-0.631 -0.211,-0.79Z"/><path d="M19.882,17.002c-0.277,-0.16 -0.631,-0.065 -0.791,0.212c-0.16,0.276 -0.065,0.631 0.212,0.79c0.277,0.16 0.631,0.065 0.791,-0.212c0.159,-0.276 0.064,-0.63 -0.212,-0.79Z"/></g><g id="Slice-14" serif:id="Slice 1"><path d="M42.223,19.12c1.007,4.32 0.383,10.139 -1.872,14.321" style="fill:none;stroke:#000;stroke-width:1px;"/><path d="M42.676,34.783c0.235,0.136 0.516,0.17 0.777,0.095c0.26,-0.075 0.48,-0.252 0.607,-0.492c2.421,-4.686 3.131,-10.073 2,-15.225c-0.06,-0.264 -0.225,-0.491 -0.457,-0.63c-0.232,-0.14 -0.51,-0.179 -0.771,-0.109c-4.254,1.136 -20.832,5.578 -20.832,5.578c-0,0 14.864,8.582 18.676,10.783Z" style="fill:none;stroke:#000;stroke-width:1px;stroke-linecap:round;stroke-miterlimit:1;"/><path d="M39.774,22.559c0.554,0.319 0.743,1.028 0.424,1.581c-0.319,0.553 -1.028,0.743 -1.581,0.424c-0.554,-0.32 -0.743,-1.028 -0.424,-1.582c0.319,-0.553 1.028,-0.743 1.581,-0.423Z" style="fill:none;stroke:#000;stroke-width:1px;stroke-linejoin:miter;stroke-miterlimit:1;"/><path d="M32.281,28.781c0.675,-1.17 2.174,-1.572 3.344,-0.896c1.171,0.675 1.572,2.174 0.897,3.344" style="fill:none;stroke:#000;stroke-width:1px;stroke-linejoin:miter;stroke-miterlimit:1;"/><path d="M39.591,28.478c0.277,0.16 0.372,0.514 0.212,0.79c-0.16,0.277 -0.514,0.372 -0.79,0.212c-0.277,-0.159 -0.372,-0.514 -0.212,-0.79c0.159,-0.277 0.514,-0.372 0.79,-0.212Z"/><path d="M32.12,24.072c0.277,0.16 0.372,0.514 0.212,0.791c-0.159,0.276 -0.514,0.371 -0.79,0.211c-0.277,-0.159 -0.372,-0.514 -0.212,-0.79c0.159,-0.277 0.514,-0.372 0.79,-0.212Z"/></g><g id="Slice-15" serif:id="Slice 1"><path d="M28.88,42.223c-4.32,1.007 -10.139,0.383 -14.321,-1.872" style="fill:none;stroke:#000;stroke-width:1px;"/><path d="M13.217,42.676c-0.136,0.235 -0.17,0.516 -0.095,0.777c0.075,0.26 0.252,0.48 0.492,0.607c4.686,2.421 10.073,3.131 15.225,2c0.264,-0.06 0.491,-0.225 0.63,-0.457c0.14,-0.232 0.179,-0.51 0.109,-0.771c-1.136,-4.254 -5.578,-20.832 -5.578,-20.832c-0,-0 -8.582,14.864 -10.783,18.676Z" style="fill:none;stroke:#000;stroke-width:1px;stroke-linecap:round;stroke-miterlimit:1;"/><path d="M25.441,39.774c-0.319,0.554 -1.028,0.743 -1.581,0.424c-0.553,-0.319 -0.743,-1.028 -0.424,-1.581c0.32,-0.554 1.028,-0.743 1.582,-0.424c0.553,0.319 0.743,1.028 0.423,1.581Z" style="fill:none;stroke:#000;stroke-width:1px;stroke-linejoin:miter;stroke-miterlimit:1;"/><path d="M19.219,32.281c1.17,0.675 1.572,2.174 0.896,3.344c-0.675,1.171 -2.174,1.572 -3.344,0.897" style="fill:none;stroke:#000;stroke-width:1px;stroke-linejoin:miter;stroke-miterlimit:1;"/><path d="M19.522,39.591c-0.16,0.277 -0.514,0.372 -0.79,0.212c-0.277,-0.16 -0.372,-0.514 -0.212,-0.79c0.159,-0.277 0.514,-0.372 0.79,-0.212c0.277,0.159 0.372,0.514 0.212,0.79Z"/><path d="M23.928,32.12c-0.16,0.277 -0.514,0.372 -0.791,0.212c-0.276,-0.159 -0.371,-0.514 -0.211,-0.79c0.159,-0.277 0.514,-0.372 0.79,-0.212c0.277,0.159 0.372,0.514 0.212,0.79Z"/></g><g id="Slice-16" serif:id="Slice 1"><path d="M5.777,28.88c-1.007,-4.32 -0.383,-10.139 1.872,-14.321" style="fill:none;stroke:#000;stroke-width:1px;"/><path d="M5.324,13.217c-0.235,-0.136 -0.516,-0.17 -0.777,-0.095c-0.26,0.075 -0.48,0.252 -0.607,0.492c-2.421,4.686 -3.131,10.073 -2,15.225c0.06,0.264 0.225,0.491 0.457,0.63c0.232,0.14 0.51,0.179 0.771,0.109c4.254,-1.136 20.832,-5.578 20.832,-5.578c-0,-0 -14.864,-8.582 -18.676,-10.783Z" style="fill:none;stroke:#000;stroke-width:1px;stroke-linecap:round;stroke-miterlimit:1;"/><path d="M8.226,25.441c-0.554,-0.319 -0.743,-1.028 -0.424,-1.581c0.319,-0.553 1.028,-0.743 1.581,-0.424c0.554,0.32 0.743,1.028 0.424,1.582c-0.319,0.553 -1.028,0.743 -1.581,0.423Z" style="fill:none;stroke:#000;stroke-width:1px;stroke-linejoin:miter;stroke-miterlimit:1;"/><path d="M15.719,19.219c-0.675,1.17 -2.174,1.572 -3.344,0.896c-1.171,-0.675 -1.572,-2.174 -0.897,-3.344" style="fill:none;stroke:#000;stroke-width:1px;stroke-linejoin:miter;stroke-miterlimit:1;"/><path d="M8.409,19.522c-0.277,-0.16 -0.372,-0.514 -0.212,-0.79c0.16,-0.277 0.514,-0.372 0.79,-0.212c0.277,0.159 0.372,0.514 0.212,0.79c-0.159,0.277 -0.514,0.372 -0.79,0.212Z"/><path d="M15.88,23.928c-0.277,-0.16 -0.372,-0.514 -0.212,-0.791c0.159,-0.276 0.514,-0.371 0.79,-0.211c0.277,0.159 0.372,0.514 0.212,0.79c-0.159,0.277 -0.514,0.372 -0.79,0.212Z"/></g><g id="Slice-17" serif:id="Slice 1"><path d="M19.12,5.777c4.32,-1.007 10.139,-0.383 14.321,1.872" style="fill:none;stroke:#000;stroke-width:1px;"/><path d="M34.783,5.324c0.136,-0.235 0.17,-0.516 0.095,-0.777c-0.075,-0.26 -0.252,-0.48 -0.492,-0.607c-4.686,-2.421 -10.073,-3.131 -15.225,-2c-0.264,0.06 -0.491,0.225 -0.63,0.457c-0.14,0.232 -0.179,0.51 -0.109,0.771c1.136,4.254 5.578,20.832 5.578,20.832c0,-0 8.582,-14.864 10.783,-18.676Z" style="fill:none;stroke:#000;stroke-width:1px;stroke-linecap:round;stroke-miterlimit:1;"/><path d="M22.559,8.226c0.319,-0.554 1.028,-0.743 1.581,-0.424c0.553,0.319 0.743,1.028 0.424,1.581c-0.32,0.554 -1.028,0.743 -1.582,0.424c-0.553,-0.319 -0.743,-1.028 -0.423,-1.581Z" style="fill:none;stroke:#000;stroke-width:1px;stroke-linejoin:miter;stroke-miterlimit:1;"/><path d="M28.781,15.719c-1.17,-0.675 -1.572,-2.174 -0.896,-3.344c0.675,-1.171 2.174,-1.572 3.344,-0.897" style="fill:none;stroke:#000;stroke-width:1px;stroke-linejoin:miter;stroke-miterlimit:1;"/><path d="M28.478,8.409c0.16,-0.277 0.514,-0.372 0.79,-0.212c0.277,0.16 0.372,0.514 0.212,0.79c-0.159,0.277 -0.514,0.372 -0.79,0.212c-0.277,-0.159 -0.372,-0.514 -0.212,-0.79Z"/><path d="M24.072,15.88c0.16,-0.277 0.514,-0.372 0.791,-0.212c0.276,0.159 0.371,0.514 0.211,0.79c-0.159,0.277 -0.514,0.372 -0.79,0.212c-0.277,-0.159 -0.372,-0.514 -0.212,-0.79Z"/></g></svg>